<?xml version="1.0" encoding="UTF-8"?>
<svg version="1.1" xmlns="http://www.w3.org/2000/svg" width="128" height="128">
<path d="M0 0 C2.79833984 2.21484375 2.79833984 2.21484375 5.4609375 4.9375 C5.93697418 
5.41823975 6.41301086 5.89897949 6.9034729 6.39428711 C8.40613814 7.91813058 9.8902122 
9.45875456 11.375 11 C12.39342171 12.03494716 13.41294388 13.06881265 14.43359375 14.1015625 
C23.16411895 22.99134921 23.16411895 22.99134921 23.5 29.625 C23.60828125 31.12933594 23.60828125 
31.12933594 23.71875 32.6640625 C22.63299228 37.70339451 19.5387184 40.38889305 16 44 C14.97398682 
45.09538086 14.97398682 45.09538086 13.92724609 46.21289062 C11.79162311 48.48288214 9.61985268 50.7124702 
7.4375 52.9375 C6.70853516 53.70384766 5.97957031 54.47019531 5.22851562 55.25976562 C-0.1484136 60.72380982 
-0.1484136 60.72380982 -4.32421875 62.078125 C-7.9158167 61.97326083 -10.01419397 60.96791761 -13 59 
C-15.03342107 56.52453087 -14.99880261 55.08730046 -15.04296875 51.8671875 C-14.1988297 46.43079072 
-9.77378275 43.37662321 -5.875 39.875 C-4.3591379 38.51199794 -2.8557834 37.13491676 -1.3671875 35.7421875 
C-0.69800293 35.1426123 -0.02881836 34.54303711 0.66064453 33.92529297 C2.2518923 32.04660039 2.2518923 
32.04660039 1.91943359 29.48632812 C0.88755704 26.69593227 -0.14985341 25.46012469 -2.34375 23.4765625 
C-3.01277344 22.8475 -3.68179688 22.2184375 -4.37109375 21.5703125 C-5.78648057 20.27698656 -7.20574301 
18.98788888 -8.62890625 17.703125 C-11.99194417 14.52800249 -13.79369027 12.75465926 -15.0390625 8.19921875 
C-14.99305253 4.43100184 -14.44602125 2.85369146 -12 0 C-7.61410827 -2.80209749 -4.7069298 
-1.72368208 0 0 Z " 
fill="#0DB0F2" transform="translate(105,34)"/>
<path d="M0 0 C2.19344641 3.01598882 2.97334422 4.97671428 3.0703125 8.69921875 C1.16322795 14.58055612 
-3.96169523 18.10461829 -8.44921875 22.16601562 C-9.16980469 22.84470703 -9.89039062 23.52339844 -10.6328125 
24.22265625 C-11.63658936 25.13156616 -11.63658936 25.13156616 -12.66064453 26.05883789 C-14.25063798 
27.95214393 -14.25063798 27.95214393 -13.91943359 30.51367188 C-12.88757703 33.30401368 -11.83954196 
34.56209074 -9.65625 36.55859375 C-8.98722656 37.19216797 -8.31820313 37.82574219 -7.62890625 38.47851562 
C-6.21158023 39.78271563 -4.79231156 41.08480768 -3.37109375 42.38476562 C1.76665141 47.2601789 1.76665141 
47.2601789 3.03125 51.26953125 C2.98830162 55.02214633 2.20922021 56.96232221 0 60 C-3.46453914 61.53979517 
-5.68844501 62.36114508 -9.39746094 61.33984375 C-12.61924954 59.68119686 -14.71684011 57.63807531 -17.265625 
55.0625 C-17.74449158 54.58176025 -18.22335815 54.10102051 -18.71673584 53.60571289 C-19.72192169 52.59383429 
-20.72351833 51.57837884 -21.72167969 50.55957031 C-23.25199389 48.99796534 -24.79284934 47.44741156 -26.3359375 
45.8984375 C-35.1652501 36.98631054 -35.1652501 36.98631054 -35.5 30.375 C-35.5721875 29.37210938 -35.644375 
28.36921875 -35.71875 27.3359375 C-34.63275762 22.29551633 -31.54771458 19.60502957 -28 16 C-27.30535645 
15.26974609 -26.61071289 14.53949219 -25.89501953 13.78710938 C-23.72463781 11.52091049 -21.52350278 9.28903221 
-19.3125 7.0625 C-18.56677734 6.29615234 -17.82105469 5.52980469 -17.05273438 4.74023438 C-16.33021484 4.01255859 
-15.60769531 3.28488281 -14.86328125 2.53515625 C-13.89322144 1.55107788 -13.89322144 1.55107788 -12.90356445 
0.54711914 C-8.59933478 -2.95113704 -4.9472693 -2.06885807 0 0 Z " 
fill="#0DB0F2" transform="translate(35,34)"/>
<path d="M0 0 C2.67047066 2.45964403 3.86740077 3.99175617 4.34375 7.61376953 C3.87368715 12.24428922 2.12051006 
15.82408489 0.125 19.9921875 C-0.27775146 20.85578888 -0.68050293 21.71939026 -1.09545898 22.60916138 
C-2.38632211 25.36958381 -3.69309312 28.12214332 -5 30.875 C-5.84866007 32.6870302 -6.6963258 34.49952645 
-7.54296875 36.3125 C-9.60685937 40.72078582 -11.69937337 45.11462206 -13.80664062 49.50231934 C-14.96306368
 51.92269291 -16.09966109 54.35161778 -17.234375 56.78222656 C-17.92617474 58.23285553 -18.61883212 59.68307592 
 -19.3125 61.1328125 C-19.61357666 61.78941864 -19.91465332 62.44602478 -20.22485352 63.12252808 C-22.16297447 
 67.10855157 -23.91077934 69.2207022 -28 71 C-31.93559391 71 -33.4680222 70.48997956 -36.375 67.8125 C-38.36749307
  64.3639543 -38.40168817 62.95697081 -38 59 C-36.93369791 55.89376226 -35.54205437 52.96767129 -34.125 50.0078125
   C-33.72224854 49.14421112 -33.31949707 48.28060974 -32.90454102 47.39083862 C-31.61367789 44.63041619 
   -30.30690688 41.87785668 -29 39.125 C-28.15133993 37.3129698 -27.3036742 35.50047355 -26.45703125 
   33.6875 C-24.39314063 29.27921418 -22.30062663 24.88537794 -20.19335938 20.49768066 C-19.03693632 18.07730709 
   -17.90033891 15.64838222 -16.765625 13.21777344 C-16.07382526 11.76714447 -15.38116788 10.31692408 -14.6875 
   8.8671875 C-14.38642334 8.21058136 -14.08534668 7.55397522 -13.77514648 6.87747192 C-10.73303346 0.62093052 
   -6.90114561 -2.34932616 0 0 Z " 
   fill="#53155C" transform="translate(81,29)"/>
</svg>
